<?xml version="1.0" standalone="no"?>
<!DOCTYPE svg PUBLIC "-//W3C//DTD SVG 20010904//EN"
 "http://www.w3.org/TR/2001/REC-SVG-20010904/DTD/svg10.dtd">
<svg version="1.0" xmlns="http://www.w3.org/2000/svg"
 width="520.000000pt" height="520.000000pt" viewBox="0 0 520.000000 520.000000"
 preserveAspectRatio="xMidYMid meet">
<metadata>
Created by potrace 1.11, written by Peter Selinger 2001-2013
</metadata>
<g transform="translate(0.000000,520.000000) scale(0.100000,-0.100000)"
fill="#000000" stroke="none">
<path d="M4563 4923 c-15 -6 -83 -128 -114 -203 -12 -30 -25 -89 -28 -130 -6
-74 -6 -74 -46 -97 -22 -12 -41 -21 -42 -19 -2 1 11 43 28 92 36 101 49 205
29 229 -15 18 -64 20 -77 3 -6 -7 -13 -40 -16 -73 -3 -36 -25 -114 -55 -193
-39 -108 -55 -137 -78 -153 -54 -36 -57 -31 -49 94 4 61 13 143 21 180 20 96
18 143 -6 167 -44 44 -96 12 -85 -51 4 -22 0 -68 -9 -111 -9 -41 -18 -136 -20
-217 l-3 -144 -144 -84 c-79 -46 -218 -130 -309 -186 -334 -205 -562 -337
-583 -337 -12 0 -59 7 -103 15 -45 8 -152 19 -238 26 -415 31 -833 -61 -1256
-276 -212 -109 -330 -195 -405 -296 l-41 -56 -63 38 c-99 60 -170 81 -299 86
-141 7 -213 -6 -320 -59 -142 -70 -207 -151 -239 -302 -49 -230 81 -410 352
-488 105 -30 337 -33 399 -5 21 9 42 17 47 17 5 0 9 -21 9 -48 0 -119 56 -496
92 -616 31 -106 189 -397 234 -431 11 -8 7 -26 -21 -95 -49 -122 -68 -215 -63
-313 6 -121 45 -197 157 -307 97 -95 158 -135 293 -190 211 -87 419 -114 878
-114 358 -1 444 6 609 49 314 83 504 311 518 625 5 90 2 114 -16 169 l-22 64
109 111 c60 61 123 133 142 160 80 118 287 576 320 709 7 26 17 47 23 47 6 0
43 -9 81 -20 283 -77 534 -72 708 16 200 101 358 355 333 538 -19 149 -159
292 -365 375 -151 60 -231 75 -395 76 -145 0 -152 -1 -212 -29 -36 -16 -80
-47 -101 -70 l-39 -42 -36 70 c-20 39 -55 93 -78 119 -115 133 -348 256 -697
367 -73 23 -132 44 -130 45 4 4 428 261 681 413 l208 125 27 -26 c40 -37 121
-86 260 -157 109 -55 127 -61 148 -51 21 9 25 17 22 44 -3 30 -11 36 -135 102
-136 72 -223 125 -223 134 0 7 128 81 139 81 4 0 54 -38 110 -86 57 -47 126
-96 152 -110 80 -40 145 -28 137 27 -3 23 -6 26 -78 58 -36 16 -161 111 -214
161 -5 5 19 22 55 40 l64 31 195 -100 c107 -56 204 -101 215 -101 50 0 61 56
18 90 -16 12 -84 49 -153 82 -145 69 -220 115 -220 133 0 7 -7 16 -16 19 -28
11 -10 81 50 202 31 60 56 115 56 121 0 30 -43 50 -77 36z m-1918 -1293 c146
-12 205 -20 205 -29 0 -3 -24 -22 -53 -42 -28 -20 -81 -64 -117 -97 -63 -57
-67 -59 -105 -53 -49 8 -106 -1 -140 -23 -30 -20 -74 -86 -81 -124 -11 -60 74
-132 177 -147 115 -17 215 86 180 187 -10 29 -9 34 21 66 39 41 163 137 232
179 l49 31 106 -29 c209 -56 462 -154 592 -230 94 -54 198 -154 237 -227 61
-114 77 -191 77 -358 0 -131 -2 -155 -17 -171 -20 -21 -24 -63 -8 -79 6 -6 6
-31 -2 -72 -10 -51 -15 -62 -31 -62 -54 0 -76 -67 -31 -96 22 -15 25 -22 19
-53 -17 -94 -197 -501 -286 -649 -38 -63 -235 -282 -254 -282 -6 0 -33 16 -60
36 -64 46 -157 93 -267 134 -49 19 -88 36 -87 39 0 3 41 38 91 76 117 91 316
297 396 410 161 227 235 468 198 643 -47 223 -229 367 -502 397 -87 9 -198 -8
-470 -76 -133 -33 -264 -62 -290 -65 -69 -9 -130 10 -146 43 -36 74 -214 150
-373 160 -200 12 -462 -85 -574 -213 -166 -188 -171 -640 -12 -980 34 -72 105
-185 160 -254 l19 -24 -71 -40 c-43 -23 -101 -68 -144 -111 l-73 -72 -59 96
c-121 197 -149 271 -185 494 -36 216 -46 335 -46 531 0 344 43 504 174 644
104 111 310 231 565 331 359 140 654 188 986 161z m-1923 -528 c32 -12 82 -37
111 -56 l54 -36 -18 -52 c-10 -29 -19 -60 -19 -68 0 -8 -4 -21 -9 -29 -7 -11
-14 -10 -37 6 -50 35 -108 48 -155 34 -84 -25 -160 -137 -144 -212 9 -41 67
-95 123 -113 26 -9 77 -19 115 -23 61 -5 68 -8 65 -26 -5 -37 -85 -69 -186
-75 -215 -12 -423 77 -494 211 -46 86 -22 244 48 325 39 46 144 109 214 129
69 20 260 11 332 -15z m3948 -37 c147 -40 253 -96 331 -174 125 -126 129 -235
12 -413 -110 -168 -264 -243 -498 -241 -119 1 -189 12 -349 55 l-78 21 6 51
c13 97 7 91 96 88 112 -5 176 15 227 71 69 75 66 162 -8 242 -55 59 -108 78
-202 73 l-75 -3 -11 65 c-6 36 -14 76 -17 89 -6 22 -5 22 16 11 19 -10 26 -9
49 9 49 40 99 70 132 80 61 19 263 6 369 -24z m-2693 -111 c101 -21 179 -61
225 -117 79 -95 175 -98 493 -18 283 71 335 81 432 81 201 0 366 -88 431 -229
21 -45 27 -75 30 -151 4 -87 1 -105 -27 -190 -34 -102 -76 -183 -150 -295 -59
-89 -318 -351 -439 -443 l-92 -71 -113 40 c-240 86 -527 134 -746 126 -144 -6
-271 -19 -360 -39 l-54 -12 -46 51 c-156 174 -253 448 -254 718 -1 257 65 390
234 476 81 41 129 57 209 74 88 18 137 18 227 -1z m-1224 -176 c18 -13 38 -18
54 -15 25 5 25 4 19 -46 -4 -28 -9 -54 -12 -59 -14 -22 -153 4 -191 36 -30 26
-24 47 28 90 34 29 53 28 102 -6z m3554 -58 c18 -10 39 -33 48 -50 35 -68 -31
-120 -152 -120 -39 0 -74 3 -76 8 -2 4 -2 44 1 89 5 92 2 90 92 92 38 1 65 -5
87 -19z m-2116 -1141 c268 -27 402 -61 714 -181 309 -119 415 -175 415 -222 0
-25 25 -52 54 -57 50 -10 59 -177 16 -314 -77 -245 -268 -376 -608 -415 -68
-8 -222 -10 -474 -7 -324 4 -388 8 -488 26 -234 44 -413 125 -529 241 -157
157 -168 309 -41 566 41 85 61 112 118 165 71 66 156 114 264 151 50 17 88 21
183 22 66 0 135 -1 154 -3 27 -3 38 1 49 17 17 25 29 26 173 11z"/>
<path d="M1821 2660 c-82 -38 -210 -164 -245 -240 -50 -108 -40 -258 25 -381
38 -71 83 -112 159 -148 47 -22 69 -26 150 -26 78 0 104 4 144 23 67 30 130
84 181 153 l42 57 17 -54 c57 -182 248 -273 460 -218 223 58 411 265 424 469
9 136 -30 191 -193 273 -104 52 -163 69 -288 83 -147 16 -196 5 -273 -65 -33
-29 -66 -65 -73 -80 -15 -28 -31 -34 -31 -13 0 27 -60 96 -105 122 -66 39
-155 64 -248 70 -76 5 -87 3 -146 -25z m210 -84 c83 -18 139 -46 174 -88 26
-31 27 -34 23 -142 -3 -94 -8 -120 -30 -169 -36 -77 -125 -169 -191 -197 -95
-41 -217 -14 -285 65 -62 70 -92 186 -72 280 11 51 20 66 88 137 80 84 147
127 197 127 17 1 60 -6 96 -13z m773 -46 c94 -24 207 -83 248 -129 28 -32 30
-39 26 -95 -6 -89 -47 -166 -132 -252 -210 -210 -492 -189 -562 42 -43 143 11
342 115 422 41 31 46 32 135 32 60 0 120 -7 170 -20z"/>
<path d="M1928 2339 c-39 -20 -68 -63 -68 -99 0 -32 25 -74 55 -90 54 -29 181
-5 205 39 15 28 12 77 -5 111 -31 59 -116 77 -187 39z"/>
<path d="M2503 2313 c-37 -7 -73 -49 -73 -84 0 -76 80 -139 177 -139 39 0 50
5 84 39 33 33 39 45 39 81 0 36 -6 48 -36 76 -33 32 -39 34 -102 33 -37 -1
-77 -4 -89 -6z"/>
<path d="M2179 1265 c-245 -40 -501 -133 -671 -244 -79 -51 -97 -76 -79 -110
20 -36 48 -35 104 1 227 150 520 244 822 263 287 19 596 -87 750 -257 43 -48
55 -68 55 -94 0 -43 36 -69 82 -60 69 14 75 46 21 126 -55 82 -169 192 -248
237 -84 48 -201 95 -310 124 -104 28 -395 36 -526 14z"/>
</g>
</svg>
